<?xml version="1.0" encoding="UTF-8"?><svg xmlns="http://www.w3.org/2000/svg" xmlns:xlink="http://www.w3.org/1999/xlink" version="1.1" id="Layer_1" x="0px" y="0px" width="92px" height="92px" viewBox="0 0 92 92" xml:space="preserve"><path d="M46 0C20.6 0 0 20.6 0 46s20.6 46 46 46 46-20.6 46-46S71.4 0 46 0zm0 84C25 84 8 67 8 46S25 8 46 8s38 17 38 38-17 38-38 38zm15.3-28.4c1.6 1.6 1.6 4.1 0 5.7-.8.8-1.8 1.2-2.8 1.2s-2-.4-2.8-1.2L43.2 48.8c-.8-.7-1.2-1.7-1.2-2.8V22.2c0-2.2 1.8-4 4-4s4 1.8 4 4v22.2l11.3 11.2z"/><metadata><rdf:RDF xmlns:rdf="http://www.w3.org/1999/02/22-rdf-syntax-ns#" xmlns:rdfs="http://www.w3.org/2000/01/rdf-schema#" xmlns:dc="http://purl.org/dc/elements/1.1/"><rdf:Description about="https://iconscout.com/legal#licenses" dc:title="clock" dc:description="clock" dc:publisher="Iconscout" dc:date="2017-09-24" dc:format="image/svg+xml" dc:language="en"><dc:creator><rdf:Bag><rdf:li>Amit Jakhu</rdf:li></rdf:Bag></dc:creator></rdf:Description></rdf:RDF></metadata></svg>