<?xml version="1.0"?>
<svg xmlns="http://www.w3.org/2000/svg" height="48" viewBox="0 0 48 48" width="48"><path d="M38 16l-8 8h6c0 6.63-5.37 12-12 12-2.03 0-3.93-.51-5.61-1.39l-2.92 2.92c2.48 1.55 5.39 2.47 8.53 2.47 8.84 0 16-7.16 16-16h6l-8-8zm-26 8c0-6.63 5.37-12 12-12 2.03 0 3.93.51 5.61 1.39l2.92-2.92c-2.48-1.55-5.39-2.47-8.53-2.47-8.84 0-16 7.16-16 16h-6l8 8 8-8h-6z"/><path d="M0 0h48v48h-48z" fill="none"/>
	
	
	<metadata>
		<rdf:RDF xmlns:rdf="http://www.w3.org/1999/02/22-rdf-syntax-ns#" xmlns:rdfs="http://www.w3.org/2000/01/rdf-schema#" xmlns:dc="http://purl.org/dc/elements/1.1/">
			<rdf:Description about="https://iconscout.com/legal#licenses" dc:title="Refresh, Reload, Retry, Synchronize, Cached" dc:description="Refresh, Reload, Retry, Synchronize, Cached" dc:publisher="Iconscout" dc:date="2016-12-14" dc:format="image/svg+xml" dc:language="en">
				<dc:creator>
					<rdf:Bag>
						<rdf:li>Google Inc.</rdf:li>
					</rdf:Bag>
				</dc:creator>
			</rdf:Description>
		</rdf:RDF>
    </metadata></svg>
